<?xml version="1.0" encoding="iso-8859-1"?>
<!-- Generator: Adobe Illustrator 19.0.0, SVG Export Plug-In . SVG Version: 6.00 Build 0)  -->
<svg version="1.1" id="Capa_1" xmlns="http://www.w3.org/2000/svg" xmlns:xlink="http://www.w3.org/1999/xlink" x="0px" y="0px"
	 viewBox="0 0 404.788 404.788" style="enable-background:new 0 0 404.788 404.788;" xml:space="preserve">
<g>
	<path style="fill:#ACE2E5;" d="M17.682,396.788v-158.4h158.4v158.4H17.682z"/>
	<path style="fill:#ACE2E5;" d="M72.882,314.388v-37.6h21.6c5.6,0,12,0.8,16.8,2.4c6.4,3.2,9.6,9.6,8.8,16c0,3.2-0.8,6.4-2.4,9.6
		c-2.4,4-5.6,6.4-9.6,8s-8,1.6-12,1.6H72.882z"/>
	<path style="fill:#ACE2E5;" d="M72.882,350.388v-40h25.6c6.4,0,12,0.8,17.6,4s8,9.6,8,16s-2.4,20-24.8,20H72.882z"/>
</g>
<g>
	<path style="fill:#EA7878;" d="M90.482,63.988l147.2-58.4l57.6,147.2l-147.2,57.6L90.482,63.988z"/>
	<polygon style="fill:#EA7878;" points="173.682,60.788 220.082,113.588 176.082,130.388 	"/>
</g>
<path style="fill:#EDA86B;" d="M195.282,351.188l40.8-152.8l152.8,40.8l-40.8,152.8L195.282,351.188z"/>
<g>
	<path style="fill:#1E0E10;" d="M138.482,208.788c3.2,7.2,11.2,11.2,18.4,8l135.2-53.6c7.2-3.2,11.2-11.2,8-18.4l-53.6-136
		c-3.2-7.2-11.2-10.4-18.4-8l-136,53.6c-7.2,3.2-11.2,11.2-8,18.4L138.482,208.788z M233.682,16.788l52,132l-132,52l-52-132
		L233.682,16.788z"/>
	<path style="fill:#1E0E10;" d="M169.682,230.388h-145.6c-8,0-14.4,6.4-14.4,14.4v145.6c0,8,6.4,14.4,14.4,14.4h145.6
		c8,0,14.4-6.4,14.4-14.4v-145.6C184.082,236.788,177.682,230.388,169.682,230.388z M168.082,388.788h-142.4v-142.4h142.4
		L168.082,388.788L168.082,388.788z"/>
	<path style="fill:#1E0E10;" d="M384.882,229.588l-140.8-37.6c-8-1.6-15.2,2.4-17.6,10.4l-37.6,140.8c-2.4,7.2,2.4,15.2,10.4,17.6
		l0,0l140.8,37.6c7.2,2.4,15.2-2.4,17.6-10.4l0,0l36.8-140.8C396.882,239.188,392.082,231.988,384.882,229.588z M342.482,381.588
		l-137.6-36l36.8-137.6l137.6,36.8L342.482,381.588z"/>
	<path style="fill:#1E0E10;" d="M168.882,149.588c0,1.6,0,2.4,0.8,3.2c0.8,1.6,2.4,3.2,4,4s4,0.8,6.4,0c1.6-0.8,3.2-2.4,4-4
		c0.8-3.2,0.8-6.4,0.8-9.6v-11.2l32-12l7.2,8l3.2,3.2c0.8,0.8,2.4,1.6,3.2,2.4c0.8,0.8,1.6,0.8,3.2,0.8c0.8,0,2.4,0,3.2-0.8
		c1.6-0.8,3.2-2.4,4-4c0.8-1.6,0.8-4,0-5.6c-1.6-2.4-3.2-5.6-5.6-7.2l-40-42.4l-4.8-4.8c-0.8-1.6-2.4-2.4-4-3.2
		c-1.6-0.8-3.2-1.6-4.8-1.6c-4,0-8,1.6-11.2,4c-0.8,1.6-1.6,3.2-2.4,4.8c-0.8,2.4-0.8,4-0.8,6.4s0,4,0,6.4v58.4
		C168.082,146.388,168.082,147.988,168.882,149.588z M206.482,109.588l-23.2,8.8l-0.8-36L206.482,109.588z"/>
	<path style="fill:#1E0E10;" d="M74.482,355.188h25.6c4,0,7.2-0.8,11.2-0.8c3.2,0,5.6-0.8,8.8-2.4c4-1.6,7.2-4.8,9.6-8
		c2.4-4,4-8,4-12.8c0-9.6-6.4-18.4-16.8-20c8-3.2,12.8-10.4,12.8-18.4c0-2.4,0-4.8-0.8-7.2c-0.8-2.4-1.6-4-3.2-6.4
		c-1.6-1.6-3.2-3.2-4.8-4.8c-2.4-1.6-4.8-2.4-8-3.2c-3.2-0.8-7.2-0.8-10.4-0.8h-28c-3.2,0-5.6,0.8-8,2.4c-1.6,2.4-2.4,4.8-2.4,8
		v62.4c0,3.2,0.8,5.6,2.4,8C68.882,355.188,71.282,355.988,74.482,355.188z M80.882,284.788h13.6c4.8,0,9.6,0.8,13.6,2.4
		c3.2,1.6,4.8,4.8,4.8,8c0,1.6-0.8,4-1.6,5.6c-0.8,2.4-3.2,4-5.6,4.8c-3.2,0.8-6.4,1.6-9.6,1.6h-15.2V284.788z M80.882,318.388h17.6
		c4.8,0,9.6,0.8,13.6,3.2c3.2,2.4,4.8,5.6,4,8.8c0,8-5.6,12-16.8,12h-18.4L80.882,318.388z"/>
	<path style="fill:#1E0E10;" d="M258.482,314.388c1.6,3.2,3.2,6.4,6.4,8.8c2.4,2.4,5.6,4.8,8.8,6.4c3.2,1.6,7.2,3.2,11.2,4
		c4.8,1.6,10.4,1.6,15.2,1.6c4-0.8,8.8-2.4,12-4.8c3.2-1.6,5.6-4,8-7.2c1.6-2.4,3.2-4.8,4-8c0.8-1.6,0-4-0.8-5.6
		c-0.8-1.6-2.4-3.2-4-3.2c-1.6-0.8-4,0-5.6,0.8c-1.6,1.6-3.2,2.4-4,4.8c-2.4,4-5.6,6.4-10.4,8c-4,1.6-8.8,1.6-12.8,0
		c-4-0.8-7.2-2.4-10.4-4.8c-2.4-3.2-4.8-7.2-4.8-11.2c-0.8-5.6,0-11.2,1.6-16c1.6-8,5.6-15.2,12-20.8c4.8-4,12-5.6,18.4-3.2
		c4,0.8,7.2,3.2,9.6,5.6c2.4,3.2,4,7.2,4.8,11.2c0.8,2.4,0.8,4,2.4,6.4c0.8,1.6,2.4,2.4,4,2.4c1.6,0.8,4,0,5.6-0.8s3.2-2.4,3.2-4
		c0.8-4,0.8-8-1.6-12c-1.6-6.4-4.8-11.2-8.8-14.4c-4.8-4-10.4-6.4-16-8s-10.4-1.6-16-1.6c-4.8,0.8-10.4,2.4-14.4,4.8
		c-4.8,3.2-8.8,6.4-12,11.2c-3.2,4.8-5.6,10.4-7.2,16.8c-0.8,4-1.6,8-1.6,12s0,7.2,0.8,11.2
		C256.082,307.988,257.682,311.188,258.482,314.388z"/>
</g>
<g>
</g>
<g>
</g>
<g>
</g>
<g>
</g>
<g>
</g>
<g>
</g>
<g>
</g>
<g>
</g>
<g>
</g>
<g>
</g>
<g>
</g>
<g>
</g>
<g>
</g>
<g>
</g>
<g>
</g>
</svg>
